<svg width="39" height="39" viewBox="0 0 39 39" fill="none" xmlns="http://www.w3.org/2000/svg">
    <rect width="39" height="39" rx="19.5" fill="url(#paint0_linear_206_1014)" />
    <circle cx="24.75" cy="14.25" r="0.75" fill="white" />
    <path fill-rule="evenodd" clip-rule="evenodd"
        d="M19.5 24.75C22.3995 24.75 24.75 22.3995 24.75 19.5C24.75 16.6005 22.3995 14.25 19.5 14.25C16.6005 14.25 14.25 16.6005 14.25 19.5C14.25 22.3995 16.6005 24.75 19.5 24.75ZM19.5005 22.9999C21.4335 22.9999 23.0005 21.4329 23.0005 19.4999C23.0005 17.5669 21.4335 15.9999 19.5005 15.9999C17.5675 15.9999 16.0005 17.5669 16.0005 19.4999C16.0005 21.4329 17.5675 22.9999 19.5005 22.9999Z"
        fill="white" />
    <defs>
        <linearGradient id="paint0_linear_206_1014" x1="35.8661" y1="3.48214" x2="3.13393" y2="36.2143"
            gradientUnits="userSpaceOnUse">
            <stop stop-color="#C334AF" />
            <stop offset="0.254701" stop-color="#4366C9" />
            <stop offset="0.741662" stop-color="#EF4C5D" />
            <stop offset="1" stop-color="#FFDC55" />
        </linearGradient>
    </defs>
</svg>