<svg width="79" height="79" viewBox="0 0 79 79" fill="none" xmlns="http://www.w3.org/2000/svg">
<g id="sale">
<circle id="Ellipse 1072" cx="39.5" cy="39.5" r="39.5" fill="#010101"/>
<g id="-20%">
<path d="M16.6788 42.1589V39.82H21.9739V42.1589H16.6788Z" fill="white"/>
<path d="M23.2484 46.2565V44.2919L28.3002 39.5207C28.6994 39.1589 28.9925 38.8346 29.1796 38.5477C29.3667 38.2608 29.4914 37.9989 29.5538 37.7619C29.6286 37.5249 29.6661 37.3066 29.6661 37.107C29.6661 36.5831 29.4852 36.184 29.1235 35.9095C28.7742 35.6226 28.2565 35.4792 27.5705 35.4792C27.0217 35.4792 26.5102 35.5852 26.0362 35.7973C25.5747 36.0093 25.1818 36.3399 24.8575 36.7889L22.6496 35.3669C23.1486 34.6185 23.8471 34.026 24.7452 33.5894C25.6433 33.1529 26.6786 32.9346 27.8512 32.9346C28.8241 32.9346 29.6723 33.0967 30.3958 33.421C31.1317 33.7329 31.6993 34.1757 32.0984 34.7495C32.5101 35.3233 32.7159 36.0093 32.7159 36.8076C32.7159 37.2318 32.6598 37.6559 32.5475 38.08C32.4477 38.4916 32.2357 38.9282 31.9113 39.3897C31.5995 39.8512 31.138 40.3689 30.5268 40.9427L26.3356 44.8906L25.7556 43.7867H33.1462V46.2565H23.2484Z" fill="white"/>
<path d="M40.0101 46.481C38.9373 46.481 37.9769 46.219 37.1286 45.6952C36.2804 45.1588 35.6131 44.3854 35.1266 43.375C34.6401 42.3647 34.3969 41.1423 34.3969 39.7078C34.3969 38.2733 34.6401 37.0509 35.1266 36.0405C35.6131 35.0301 36.2804 34.263 37.1286 33.7391C37.9769 33.2028 38.9373 32.9346 40.0101 32.9346C41.0953 32.9346 42.0558 33.2028 42.8915 33.7391C43.7397 34.263 44.407 35.0301 44.8935 36.0405C45.38 37.0509 45.6232 38.2733 45.6232 39.7078C45.6232 41.1423 45.38 42.3647 44.8935 43.375C44.407 44.3854 43.7397 45.1588 42.8915 45.6952C42.0558 46.219 41.0953 46.481 40.0101 46.481ZM40.0101 43.9177C40.5215 43.9177 40.9643 43.7742 41.3385 43.4873C41.7252 43.2004 42.0246 42.7451 42.2366 42.1214C42.4611 41.4978 42.5734 40.6932 42.5734 39.7078C42.5734 38.7224 42.4611 37.9178 42.2366 37.2941C42.0246 36.6704 41.7252 36.2151 41.3385 35.9283C40.9643 35.6414 40.5215 35.4979 40.0101 35.4979C39.5111 35.4979 39.0683 35.6414 38.6816 35.9283C38.3074 36.2151 38.008 36.6704 37.7835 37.2941C37.5715 37.9178 37.4654 38.7224 37.4654 39.7078C37.4654 40.6932 37.5715 41.4978 37.7835 42.1214C38.008 42.7451 38.3074 43.2004 38.6816 43.4873C39.0683 43.7742 39.5111 43.9177 40.0101 43.9177Z" fill="white"/>
<path d="M48.9857 46.2565L57.9293 33.1591H60.1559L51.2123 46.2565H48.9857ZM50.1271 40.2317C49.4909 40.2317 48.9296 40.0882 48.4431 39.8013C47.9566 39.502 47.57 39.0841 47.2831 38.5477C47.0086 37.9989 46.8714 37.3565 46.8714 36.6205C46.8714 35.8846 47.0086 35.2484 47.2831 34.7121C47.57 34.1757 47.9566 33.7578 48.4431 33.4585C48.9296 33.1591 49.4909 33.0094 50.1271 33.0094C50.7632 33.0094 51.3245 33.1591 51.811 33.4585C52.2975 33.7578 52.6779 34.1757 52.9523 34.7121C53.2268 35.2484 53.364 35.8846 53.364 36.6205C53.364 37.3565 53.2268 37.9989 52.9523 38.5477C52.6779 39.0841 52.2975 39.502 51.811 39.8013C51.3245 40.0882 50.7632 40.2317 50.1271 40.2317ZM50.1271 38.6974C50.5387 38.6974 50.8692 38.529 51.1187 38.1922C51.3682 37.843 51.4929 37.3191 51.4929 36.6205C51.4929 35.922 51.3682 35.4044 51.1187 35.0676C50.8692 34.7183 50.5387 34.5437 50.1271 34.5437C49.7279 34.5437 49.3973 34.7183 49.1354 35.0676C48.8859 35.4044 48.7612 35.922 48.7612 36.6205C48.7612 37.3066 48.8859 37.8243 49.1354 38.1735C49.3973 38.5228 49.7279 38.6974 50.1271 38.6974ZM59.0146 46.4062C58.3909 46.4062 57.8296 46.2627 57.3306 45.9758C56.8441 45.6764 56.4637 45.2586 56.1893 44.7222C55.9148 44.1734 55.7776 43.531 55.7776 42.795C55.7776 42.0591 55.9148 41.4229 56.1893 40.8865C56.4637 40.3502 56.8441 39.9323 57.3306 39.6329C57.8296 39.3336 58.3909 39.1839 59.0146 39.1839C59.6632 39.1839 60.2307 39.3336 60.7172 39.6329C61.2037 39.9323 61.5841 40.3502 61.8586 40.8865C62.133 41.4229 62.2702 42.0591 62.2702 42.795C62.2702 43.531 62.133 44.1734 61.8586 44.7222C61.5841 45.2586 61.2037 45.6764 60.7172 45.9758C60.2307 46.2627 59.6632 46.4062 59.0146 46.4062ZM59.0146 44.8719C59.4262 44.8719 59.7567 44.7035 60.0062 44.3667C60.2557 44.0174 60.3804 43.4935 60.3804 42.795C60.3804 42.109 60.2557 41.5913 60.0062 41.242C59.7567 40.8928 59.4262 40.7181 59.0146 40.7181C58.6154 40.7181 58.2848 40.8928 58.0229 41.242C57.7734 41.5788 57.6487 42.0965 57.6487 42.795C57.6487 43.4935 57.7734 44.0174 58.0229 44.3667C58.2848 44.7035 58.6154 44.8719 59.0146 44.8719Z" fill="white"/>
</g>
</g>
</svg>
