<svg width="100" height="100" viewBox="0 0 100 100" fill="none" xmlns="http://www.w3.org/2000/svg">
<g id="sale">
<circle id="Ellipse 1071" cx="50" cy="50" r="50" fill="#273DA4"/>
<g id="Only 48 hours">
<path d="M39.3968 47.2921C38.6336 47.2921 37.9255 47.168 37.2727 46.9197C36.629 46.6714 36.0681 46.322 35.5899 45.8714C35.1209 45.4208 34.7531 44.8921 34.4865 44.2852C34.229 43.6783 34.1003 43.0162 34.1003 42.299C34.1003 41.5817 34.229 40.9197 34.4865 40.3128C34.7531 39.7059 35.1255 39.1771 35.6037 38.7266C36.0819 38.276 36.6428 37.9266 37.2865 37.6783C37.9301 37.43 38.629 37.3059 39.383 37.3059C40.1462 37.3059 40.8451 37.43 41.4796 37.6783C42.1232 37.9266 42.6796 38.276 43.1485 38.7266C43.6267 39.1771 43.9991 39.7059 44.2658 40.3128C44.5324 40.9105 44.6658 41.5726 44.6658 42.299C44.6658 43.0162 44.5324 43.6829 44.2658 44.299C43.9991 44.9059 43.6267 45.4346 43.1485 45.8852C42.6796 46.3266 42.1232 46.6714 41.4796 46.9197C40.8451 47.168 40.1508 47.2921 39.3968 47.2921ZM39.383 45.3886C39.8152 45.3886 40.2106 45.3151 40.5692 45.168C40.937 45.0208 41.2589 44.8093 41.5347 44.5335C41.8106 44.2576 42.0221 43.9312 42.1692 43.5542C42.3255 43.1771 42.4037 42.7588 42.4037 42.299C42.4037 41.8392 42.3255 41.4208 42.1692 41.0438C42.0221 40.6668 41.8106 40.3404 41.5347 40.0645C41.2681 39.7886 40.9508 39.5771 40.583 39.43C40.2152 39.2829 39.8152 39.2093 39.383 39.2093C38.9508 39.2093 38.5508 39.2829 38.183 39.43C37.8244 39.5771 37.5071 39.7886 37.2313 40.0645C36.9554 40.3404 36.7393 40.6668 36.583 41.0438C36.4359 41.4208 36.3623 41.8392 36.3623 42.299C36.3623 42.7496 36.4359 43.168 36.583 43.5542C36.7393 43.9312 36.9508 44.2576 37.2175 44.5335C37.4934 44.8093 37.8152 45.0208 38.183 45.168C38.5508 45.3151 38.9508 45.3886 39.383 45.3886Z" fill="white"/>
<path d="M50.7037 39.5955C51.2922 39.5955 51.8163 39.7151 52.2761 39.9542C52.7451 40.184 53.1129 40.5427 53.3796 41.03C53.6462 41.5082 53.7796 42.1243 53.7796 42.8783V47.1266H51.6278V43.2093C51.6278 42.6116 51.4945 42.1703 51.2278 41.8852C50.9704 41.6001 50.6026 41.4576 50.1244 41.4576C49.7842 41.4576 49.4761 41.5312 49.2003 41.6783C48.9336 41.8162 48.7221 42.0323 48.5658 42.3266C48.4186 42.6208 48.3451 42.9978 48.3451 43.4576V47.1266H46.1934V39.7059H48.2485V41.7611L47.8623 41.1404C48.129 40.6438 48.5106 40.2622 49.0071 39.9955C49.5037 39.7289 50.0692 39.5955 50.7037 39.5955Z" fill="white"/>
<path d="M55.73 47.1266V36.8921H57.8817V47.1266H55.73Z" fill="white"/>
<path d="M60.8166 49.9128C60.4304 49.9128 60.0488 49.853 59.6718 49.7335C59.2948 49.6139 58.9867 49.4484 58.7477 49.2369L59.5339 47.7059C59.6994 47.853 59.8879 47.968 60.0994 48.0507C60.3201 48.1335 60.5362 48.1748 60.7477 48.1748C61.0511 48.1748 61.2902 48.1013 61.4649 47.9542C61.6488 47.8162 61.8143 47.5817 61.9615 47.2507L62.3477 46.3404L62.5132 46.1059L65.1753 39.7059H67.2442L63.8925 47.5817C63.6534 48.1794 63.3776 48.6484 63.0649 48.9886C62.7615 49.3289 62.4212 49.568 62.0442 49.7059C61.6764 49.8438 61.2672 49.9128 60.8166 49.9128ZM62.0856 47.4162L58.7753 39.7059H60.9959L63.5615 45.9128L62.0856 47.4162Z" fill="white"/>
<path d="M20.7154 60.6162V59.1128L25.2671 52.9886H27.6119L23.1568 59.1128L22.0671 58.7955H29.6671V60.6162H20.7154ZM25.9154 62.6438V60.6162L25.9844 58.7955V56.9886H28.0947V62.6438H25.9154Z" fill="white"/>
<path d="M34.4701 62.8093C33.6609 62.8093 32.9529 62.6898 32.346 62.4507C31.7391 62.2024 31.2655 61.8576 30.9253 61.4162C30.5851 60.9657 30.415 60.4415 30.415 59.8438C30.415 59.2461 30.5805 58.7404 30.9115 58.3266C31.2517 57.9036 31.7253 57.5863 32.3322 57.3748C32.9391 57.1542 33.6517 57.0438 34.4701 57.0438C35.2977 57.0438 36.015 57.1542 36.6219 57.3748C37.238 57.5863 37.7115 57.9036 38.0425 58.3266C38.3828 58.7404 38.5529 59.2461 38.5529 59.8438C38.5529 60.4415 38.3828 60.9657 38.0425 61.4162C37.7023 61.8576 37.2242 62.2024 36.6081 62.4507C36.0012 62.6898 35.2885 62.8093 34.4701 62.8093ZM34.4701 61.168C35.0311 61.168 35.4724 61.0438 35.7943 60.7955C36.1253 60.5473 36.2908 60.207 36.2908 59.7748C36.2908 59.3427 36.1253 59.007 35.7943 58.768C35.4724 58.5197 35.0311 58.3955 34.4701 58.3955C33.9184 58.3955 33.4816 58.5197 33.1598 58.768C32.8379 59.007 32.677 59.3427 32.677 59.7748C32.677 60.207 32.8379 60.5473 33.1598 60.7955C33.4816 61.0438 33.9184 61.168 34.4701 61.168ZM34.4701 58.1748C33.7253 58.1748 33.0724 58.0737 32.5115 57.8714C31.9598 57.6691 31.5276 57.3748 31.215 56.9886C30.9115 56.5932 30.7598 56.1243 30.7598 55.5817C30.7598 55.0116 30.9161 54.5243 31.2288 54.1197C31.5414 53.7059 31.9782 53.3886 32.5391 53.168C33.1 52.9381 33.7437 52.8231 34.4701 52.8231C35.215 52.8231 35.8632 52.9381 36.415 53.168C36.9759 53.3886 37.4127 53.7059 37.7253 54.1197C38.0471 54.5243 38.2081 55.0116 38.2081 55.5817C38.2081 56.1243 38.0517 56.5932 37.7391 56.9886C37.4357 57.3748 37.0035 57.6691 36.4425 57.8714C35.8816 58.0737 35.2242 58.1748 34.4701 58.1748ZM34.4701 56.8645C34.9391 56.8645 35.3069 56.7588 35.5736 56.5473C35.8494 56.3358 35.9874 56.0461 35.9874 55.6783C35.9874 55.2921 35.8448 54.9932 35.5598 54.7817C35.2839 54.5703 34.9207 54.4645 34.4701 54.4645C34.0288 54.4645 33.6701 54.5703 33.3943 54.7817C33.1184 54.9932 32.9805 55.2921 32.9805 55.6783C32.9805 56.0461 33.1138 56.3358 33.3805 56.5473C33.6471 56.7588 34.0104 56.8645 34.4701 56.8645Z" fill="white"/>
<path d="M48.4475 55.1128C49.036 55.1128 49.5601 55.2323 50.0199 55.4714C50.4889 55.7013 50.8567 56.0599 51.1234 56.5473C51.39 57.0254 51.5234 57.6415 51.5234 58.3955V62.6438H49.3716V58.7266C49.3716 58.1289 49.2383 57.6875 48.9716 57.4024C48.7142 57.1174 48.3464 56.9748 47.8682 56.9748C47.528 56.9748 47.2199 57.0484 46.9441 57.1955C46.6774 57.3335 46.4659 57.5496 46.3096 57.8438C46.1624 58.1381 46.0889 58.5151 46.0889 58.9748V62.6438H43.9372V52.4093H46.0889V57.2783L45.6061 56.6576C45.8728 56.1611 46.2544 55.7794 46.751 55.5128C47.2475 55.2461 47.813 55.1128 48.4475 55.1128Z" fill="white"/>
<path d="M57.0587 62.7542C56.2679 62.7542 55.5645 62.5886 54.9484 62.2576C54.3415 61.9266 53.8587 61.476 53.5001 60.9059C53.1507 60.3266 52.976 59.6691 52.976 58.9335C52.976 58.1886 53.1507 57.5312 53.5001 56.9611C53.8587 56.3817 54.3415 55.9312 54.9484 55.6093C55.5645 55.2783 56.2679 55.1128 57.0587 55.1128C57.8403 55.1128 58.5392 55.2783 59.1553 55.6093C59.7714 55.9312 60.2541 56.3771 60.6035 56.9473C60.953 57.5174 61.1277 58.1794 61.1277 58.9335C61.1277 59.6691 60.953 60.3266 60.6035 60.9059C60.2541 61.476 59.7714 61.9266 59.1553 62.2576C58.5392 62.5886 57.8403 62.7542 57.0587 62.7542ZM57.0587 60.9886C57.4173 60.9886 57.7392 60.9059 58.0242 60.7404C58.3093 60.5749 58.5346 60.3404 58.7001 60.0369C58.8656 59.7243 58.9484 59.3565 58.9484 58.9335C58.9484 58.5013 58.8656 58.1335 58.7001 57.83C58.5346 57.5266 58.3093 57.2921 58.0242 57.1266C57.7392 56.9611 57.4173 56.8783 57.0587 56.8783C56.7001 56.8783 56.3783 56.9611 56.0932 57.1266C55.8081 57.2921 55.5783 57.5266 55.4035 57.83C55.238 58.1335 55.1553 58.5013 55.1553 58.9335C55.1553 59.3565 55.238 59.7243 55.4035 60.0369C55.5783 60.3404 55.8081 60.5749 56.0932 60.7404C56.3783 60.9059 56.7001 60.9886 57.0587 60.9886Z" fill="white"/>
<path d="M65.697 62.7542C65.0809 62.7542 64.5292 62.6346 64.0418 62.3955C63.5636 62.1565 63.1912 61.7932 62.9246 61.3059C62.6579 60.8093 62.5246 60.1794 62.5246 59.4162V55.2231H64.6763V59.099C64.6763 59.7151 64.805 60.1703 65.0625 60.4645C65.3292 60.7496 65.7016 60.8921 66.1797 60.8921C66.5108 60.8921 66.805 60.8231 67.0625 60.6852C67.32 60.5381 67.5223 60.3174 67.6694 60.0231C67.8165 59.7197 67.8901 59.3427 67.8901 58.8921V55.2231H70.0418V62.6438H68.0004V60.6024L68.3728 61.1955C68.1245 61.7105 67.7567 62.1013 67.2694 62.368C66.7912 62.6254 66.2671 62.7542 65.697 62.7542Z" fill="white"/>
<path d="M72.0352 62.6438V55.2231H74.0904V57.3197L73.8007 56.7128C74.0214 56.1886 74.3755 55.7932 74.8628 55.5266C75.3502 55.2507 75.9433 55.1128 76.6421 55.1128V57.099C76.5502 57.0898 76.4674 57.0852 76.3938 57.0852C76.3203 57.076 76.2421 57.0714 76.1594 57.0714C75.5709 57.0714 75.0927 57.2415 74.7249 57.5817C74.3663 57.9128 74.1869 58.4323 74.1869 59.1404V62.6438H72.0352Z" fill="white"/>
<path d="M80.472 62.7542C79.8375 62.7542 79.226 62.6806 78.6375 62.5335C78.0582 62.3771 77.5984 62.184 77.2582 61.9542L77.9754 60.4093C78.3156 60.6208 78.7156 60.7955 79.1754 60.9335C79.6444 61.0622 80.1041 61.1266 80.5547 61.1266C81.0513 61.1266 81.4007 61.0668 81.603 60.9473C81.8145 60.8277 81.9202 60.6622 81.9202 60.4507C81.9202 60.276 81.8375 60.1473 81.672 60.0645C81.5156 59.9725 81.3041 59.9036 81.0375 59.8576C80.7708 59.8116 80.4766 59.7657 80.1547 59.7197C79.8421 59.6737 79.5248 59.6139 79.203 59.5404C78.8812 59.4576 78.5869 59.3381 78.3202 59.1817C78.0536 59.0254 77.8375 58.8139 77.672 58.5473C77.5156 58.2806 77.4375 57.9358 77.4375 57.5128C77.4375 57.0438 77.5708 56.63 77.8375 56.2714C78.1133 55.9128 78.5087 55.6323 79.0237 55.43C79.5386 55.2185 80.1547 55.1128 80.872 55.1128C81.3777 55.1128 81.8927 55.168 82.4168 55.2783C82.9409 55.3886 83.3777 55.5496 83.7271 55.7611L83.0099 57.2921C82.6513 57.0806 82.2881 56.9381 81.9202 56.8645C81.5616 56.7817 81.2122 56.7404 80.872 56.7404C80.3938 56.7404 80.0444 56.8047 79.8237 56.9335C79.603 57.0622 79.4927 57.2277 79.4927 57.43C79.4927 57.6139 79.5708 57.7519 79.7271 57.8438C79.8927 57.9358 80.1087 58.0093 80.3754 58.0645C80.6421 58.1197 80.9317 58.1702 81.2444 58.2162C81.5662 58.253 81.8881 58.3128 82.2099 58.3955C82.5317 58.4783 82.8214 58.5978 83.0789 58.7542C83.3455 58.9013 83.5616 59.1082 83.7271 59.3748C83.8927 59.6323 83.9754 59.9725 83.9754 60.3955C83.9754 60.8553 83.8375 61.2645 83.5616 61.6231C83.2858 61.9725 82.8858 62.2484 82.3616 62.4507C81.8467 62.653 81.2168 62.7542 80.472 62.7542Z" fill="white"/>
</g>
</g>
</svg>
