<svg viewBox="0 0 73.7 73.7" xmlns="http://www.w3.org/2000/svg">
    <path d="m0 0h73.7v73.7h-73.7z" fill="#fff" />
    <path
        d="m50.41 62.72h3.74c7.29 0 9-2.06 9-6.64v-12.39c0-3.74.58-5.93 5-6.71v-.26c-4.39-.77-5-3-5-6.71v-12.39c0-4.58-1.68-6.64-9-6.64h-3.74"
        fill="none" stroke="#000" stroke-width="2.67" />
    <path
        d="m23.3 11h-3.74c-7.3 0-9 2.06-9 6.64v12.36c0 3.74-.58 5.94-5 6.71v.29c4.39.78 5 3 5 6.71v12.37c0 4.58 1.67 6.64 9 6.64h3.74"
        fill="none" stroke="#000" stroke-width="2.67" />
    <path
        d="m37.32 50a17.39 17.39 0 0 1 -7.12 1.28c-7.6 0-13.35-4.8-13.35-13.64 0-8.46 5.75-14.16 14.11-14.16a14.54 14.54 0 0 1 6.4 1.2l-.84 2.84a12.76 12.76 0 0 0 -5.44-1.12c-6.32 0-10.52 4-10.52 11.12 0 6.6 3.8 10.84 10.36 10.84a13.88 13.88 0 0 0 5.68-1.12z" />
    <path
        d="m41.2 46.67a12.35 12.35 0 0 0 6.24 1.76c3.56 0 5.64-1.88 5.64-4.6 0-2.52-1.44-4-5.08-5.36-4.4-1.56-7.15-3.84-7.15-7.64 0-4.2 3.48-7.32 8.72-7.32a12.39 12.39 0 0 1 6 1.32l-1 2.84a10.68 10.68 0 0 0 -5.12-1.28c-3.68 0-5.08 2.2-5.08 4 0 2.52 1.64 3.76 5.36 5.2 4.56 1.76 6.88 4 6.88 7.92 0 4.16-3.08 7.76-9.44 7.76a13.86 13.86 0 0 1 -6.88-1.72z" />
</svg>