<svg id="Слой_1" data-name="Слой 1" xmlns="http://www.w3.org/2000/svg" viewBox="0 0 143.12 54.41">
    <defs>
        <style>
            .cls-1 {
                fill: #0070f3;
                /* stroke: #000; */
                /* stroke: #0070f3; */
                stroke-width: 2.67px;
                transform="translate(-0.44 -0.44)

            }

            .cls-2 {
                /* fill: none;
                stroke: #0070f3;
                transform="translate(-0.44 -0.44) */

            }
                .cls-3 {
                fill: none;
                /* stroke: #000; */
                stroke: #0070f3;
                stroke-width: 2.67px;
                transform="translate(-0.44 -0.44)

            }
        </style>
    </defs>
    <path class="cls-3"
        d="M46.56,53.51H50.3c7.29,0,9-2.06,9-6.64V34.48c0-3.74.58-5.93,5-6.71v-.26c-4.39-.77-5-3-5-6.71V8.41c0-4.58-1.68-6.64-9-6.64H46.56" />
    <path class=" cls-3"
        d="M19.45,1.77H15.71c-7.3,0-9,2.06-9,6.64V20.8c0,3.74-.58,5.94-5,6.71v.26c4.39.78,5,3,5,6.71V46.87c0,4.58,1.67,6.64,9,6.64h3.74" />
    <path class="cls-1 cls-2"
        d="M33.47,40.82a17.27,17.27,0,0,1-7.12,1.28C18.75,42.1,13,37.3,13,28.46,13,20,18.75,14.3,27.11,14.3a14.6,14.6,0,0,1,6.4,1.2l-.84,2.84a12.68,12.68,0,0,0-5.44-1.12c-6.32,0-10.52,4-10.52,11.12,0,6.6,3.8,10.84,10.36,10.84a13.93,13.93,0,0,0,5.68-1.12Z" />
    <path class="cls-1 cls-2"
        d="M37.35,37.46a12.33,12.33,0,0,0,6.24,1.76c3.56,0,5.64-1.88,5.64-4.6,0-2.52-1.44-4-5.08-5.36C39.75,27.7,37,25.42,37,21.62c0-4.2,3.48-7.32,8.72-7.32a12.37,12.37,0,0,1,6,1.32l-1,2.84a10.74,10.74,0,0,0-5.12-1.28c-3.68,0-5.08,2.2-5.08,4,0,2.52,1.64,3.76,5.36,5.2,4.56,1.76,6.88,4,6.88,7.92,0,4.16-3.08,7.76-9.44,7.76a13.93,13.93,0,0,1-6.88-1.72Z" />
    <path class=" cls-2"
        d="M84.89,8.48v2.69a6.29,6.29,0,0,0-4.08-1.65,5.22,5.22,0,0,0-3.92,1.67,5.66,5.66,0,0,0-1.6,4.06,5.53,5.53,0,0,0,1.6,4,5.29,5.29,0,0,0,3.93,1.63,4.82,4.82,0,0,0,2-.39,5.87,5.87,0,0,0,1-.53,10.92,10.92,0,0,0,1.06-.8v2.74A8.18,8.18,0,0,1,80.79,23,7.73,7.73,0,0,1,73,15.27a7.71,7.71,0,0,1,1.9-5.13,7.82,7.82,0,0,1,10-1.66Z" />
    <path class=" cls-2"
        d="M86.89,17.92a4.73,4.73,0,0,1,1.48-3.51,5.22,5.22,0,0,1,7.21,0A4.88,4.88,0,0,1,97,18a4.82,4.82,0,0,1-1.47,3.58A5,5,0,0,1,91.92,23a4.82,4.82,0,0,1-3.58-1.47A4.93,4.93,0,0,1,86.89,17.92Zm2.25,0a3.22,3.22,0,0,0,.76,2.26,2.68,2.68,0,0,0,2.06.83A2.65,2.65,0,0,0,94,20.22,3.09,3.09,0,0,0,94.79,18,3.09,3.09,0,0,0,94,15.79,2.68,2.68,0,0,0,92,15a2.65,2.65,0,0,0-2,.84A3.06,3.06,0,0,0,89.14,18Z" />
    <path class=" cls-2"
        d="M106.38,6.25h2.2V22.74h-2.2v-1A4.14,4.14,0,0,1,103.44,23a4.2,4.2,0,0,1-3.25-1.43A5.31,5.31,0,0,1,98.92,18a5.16,5.16,0,0,1,1.27-3.56,4.12,4.12,0,0,1,3.2-1.43,4,4,0,0,1,3,1.37ZM101.16,18a3.38,3.38,0,0,0,.73,2.23,2.4,2.4,0,0,0,1.9.86,2.51,2.51,0,0,0,2-.83,3.27,3.27,0,0,0,.75-2.21,3.27,3.27,0,0,0-.75-2.21,2.59,2.59,0,0,0-3.85,0A3.18,3.18,0,0,0,101.16,18Z" />
    <path class=" cls-2"
        d="M120,18.51H113.2a2.87,2.87,0,0,0,.76,1.86,2.31,2.31,0,0,0,1.73.68,2.26,2.26,0,0,0,1.36-.39,5.61,5.61,0,0,0,1.2-1.44l1.86,1a7.58,7.58,0,0,1-.91,1.26,4.85,4.85,0,0,1-1,.86,4.09,4.09,0,0,1-1.18.49,5.45,5.45,0,0,1-1.38.16,4.48,4.48,0,0,1-3.41-1.37A5.12,5.12,0,0,1,110.91,18a5.22,5.22,0,0,1,1.25-3.65A4.3,4.3,0,0,1,115.5,13a4.25,4.25,0,0,1,3.32,1.34A5.28,5.28,0,0,1,120,18Zm-2.26-1.8A2.1,2.1,0,0,0,115.55,15a2.19,2.19,0,0,0-1.4.47,2.43,2.43,0,0,0-.8,1.29Z" />
    <path class=" cls-2"
        d="M82.27,33.91,80.43,35a3.35,3.35,0,0,0-1-1.18,2.35,2.35,0,0,0-1.26-.31,2.32,2.32,0,0,0-1.57.54A1.64,1.64,0,0,0,76,35.39c0,.73.54,1.33,1.64,1.77l1.5.62a6.47,6.47,0,0,1,2.69,1.81,4.12,4.12,0,0,1,.85,2.62,4.62,4.62,0,0,1-1.39,3.44A4.77,4.77,0,0,1,77.81,47a4.65,4.65,0,0,1-3.24-1.16A5.38,5.38,0,0,1,73,42.58l2.3-.5a4,4,0,0,0,.55,1.83,2.37,2.37,0,0,0,2.05,1,2.4,2.4,0,0,0,1.77-.71,2.47,2.47,0,0,0,.7-1.81,2.64,2.64,0,0,0-.12-.81,2,2,0,0,0-.38-.67,3.22,3.22,0,0,0-.67-.58,6.36,6.36,0,0,0-1-.51l-1.45-.6c-2.07-.88-3.1-2.15-3.1-3.83A3.6,3.6,0,0,1,75,32.53a4.69,4.69,0,0,1,3.23-1.16A4.51,4.51,0,0,1,82.27,33.91Z" />
    <path class=" cls-2"
        d="M84.54,41.92A4.76,4.76,0,0,1,86,38.41a5.22,5.22,0,0,1,7.21,0A4.85,4.85,0,0,1,94.69,42a4.79,4.79,0,0,1-1.48,3.58A5,5,0,0,1,89.57,47,4.8,4.8,0,0,1,86,45.55,4.89,4.89,0,0,1,84.54,41.92Zm2.25,0a3.22,3.22,0,0,0,.76,2.26,2.71,2.71,0,0,0,2.06.83,2.66,2.66,0,0,0,2.06-.83,3.57,3.57,0,0,0,0-4.43A2.68,2.68,0,0,0,89.61,39a2.65,2.65,0,0,0-2,.84A3.06,3.06,0,0,0,86.79,42Z" />
    <path class=" cls-2" d="M99.21,30.25V46.74H97V30.25Z" />
    <path class=" cls-2"
        d="M104.19,37.23v5.46c0,1.58.62,2.36,1.86,2.36s1.87-.78,1.87-2.36V37.23h2.2v5.51a6.06,6.06,0,0,1-.29,2,3.35,3.35,0,0,1-.94,1.34,4.17,4.17,0,0,1-2.84,1,4.11,4.11,0,0,1-2.82-1,3.43,3.43,0,0,1-1-1.34,5.49,5.49,0,0,1-.27-2V37.23Z" />
    <path class=" cls-2" d="M115.16,39.28v7.46H113V39.28H112V37.23H113V33.75h2.2v3.48h1.7v2.05Z" />
    <path class=" cls-2"
        d="M118,33.28a1.43,1.43,0,0,1,1.42-1.42,1.39,1.39,0,0,1,1,.42,1.35,1.35,0,0,1,.42,1,1.38,1.38,0,0,1-.42,1,1.42,1.42,0,0,1-2,0A1.39,1.39,0,0,1,118,33.28Zm2.53,3.95v9.51h-2.2V37.23Z" />
    <path class=" cls-2"
        d="M122.89,41.92a4.76,4.76,0,0,1,1.47-3.51,5.22,5.22,0,0,1,7.21,0,5.08,5.08,0,0,1,0,7.16A5,5,0,0,1,127.92,47a4.84,4.84,0,0,1-3.59-1.47A4.92,4.92,0,0,1,122.89,41.92Zm2.25,0a3.22,3.22,0,0,0,.76,2.26,2.71,2.71,0,0,0,2.06.83,2.66,2.66,0,0,0,2.06-.83,3.57,3.57,0,0,0,0-4.43A2.68,2.68,0,0,0,128,39a2.65,2.65,0,0,0-2,.84A3.06,3.06,0,0,0,125.14,42Z" />
    <path class="cls-2"
        d="M135.36,37.23h2.21v.88a3.6,3.6,0,0,1,2.6-1.14,3.29,3.29,0,0,1,2.58,1,4.26,4.26,0,0,1,.8,2.9v5.83h-2.2V41.43a3.47,3.47,0,0,0-.39-1.94,1.58,1.58,0,0,0-1.39-.55,1.69,1.69,0,0,0-1.55.72,5,5,0,0,0-.45,2.49v4.59h-2.21Z" />
</svg>