<svg xmlns="http://www.w3.org/2000/svg" viewBox="0 0 1440 320"><path fill="#d9c3f5" fill-opacity="0.2" d="M0,128L60,117.3C120,107,240,85,360,101.3C480,117,600,171,720,181.3C840,192,960,160,1080,122.7C1200,85,1320,43,1380,21.3L1440,0L1440,320L1380,320C1320,320,1200,320,1080,320C960,320,840,320,720,320C600,320,480,320,360,320C240,320,120,320,60,320L0,320Z"></path>
<path fill="#88c3e5" fill-opacity="0.1" d="M0,32L60,58.7C120,85,240,139,360,170.7C480,203,600,213,720,208C840,203,960,181,1080,154.7C1200,128,1320,96,1380,80L1440,64L1440,320L1380,320C1320,320,1200,320,1080,320C960,320,840,320,720,320C600,320,480,320,360,320C240,320,120,320,60,320L0,320Z"></path></svg>