<svg width="274" height="213" viewBox="0 0 274 213" fill="none" xmlns="http://www.w3.org/2000/svg">
<ellipse cx="152.805" cy="205.395" rx="96.776" ry="7.60538" fill="#BDBDBD"/>
<path d="M206.829 67.8692L211.761 66.5335C212.495 66.3331 212.928 65.5984 212.728 64.8638L208.295 48.5342C208.095 47.7996 207.362 47.3655 206.629 47.5658L201.696 48.9016C200.963 49.1019 200.53 49.8366 200.73 50.5713L205.163 66.9008C205.362 67.6355 206.096 68.0362 206.829 67.8692Z" fill="#273DA4" stroke="#010101" stroke-width="0.6" stroke-miterlimit="10"/>
<path d="M46.0478 105.962L50.9802 104.626C51.7134 104.426 52.1467 103.691 51.9467 102.957L47.5142 86.6271C47.3142 85.8925 46.581 85.4584 45.8478 85.6587L40.9154 86.9945C40.1821 87.1948 39.7489 87.9295 39.9489 88.6642L44.3814 104.994C44.5814 105.728 45.3146 106.129 46.0478 105.962Z" fill="#273DA4" stroke="#010101" stroke-width="0.6" stroke-miterlimit="10"/>
<path d="M185.338 99.9653L189.033 96.4293C189.584 95.9046 190.436 95.9137 190.959 96.4656L202.605 108.722C203.128 109.274 203.119 110.127 202.569 110.652L198.874 114.188C198.323 114.713 197.471 114.703 196.948 114.152L185.302 101.895C184.778 101.343 184.816 100.507 185.338 99.9653Z" fill="#273DA4" stroke="#010101" stroke-width="0.6" stroke-miterlimit="10"/>
<path d="M17.734 165.275L24.3328 165.709C25.3993 165.776 26.2991 164.974 26.3991 163.906L28.0655 138.126C28.1321 137.057 27.3322 136.156 26.2658 136.055L19.6669 135.621C18.6005 135.555 17.7006 136.356 17.6007 137.425L15.9343 163.205C15.8676 164.307 16.6675 165.208 17.734 165.275Z" fill="#273DA4" stroke="#010101" stroke-width="0.6" stroke-miterlimit="10"/>
<path d="M178.771 184.586L182.404 179.744C182.97 179.01 182.803 177.941 182.07 177.373L164.707 164.316C163.973 163.749 162.907 163.916 162.34 164.65L158.708 169.492C158.141 170.227 158.308 171.296 159.041 171.863L176.405 184.92C177.171 185.488 178.204 185.321 178.771 184.586Z" fill="#273DA4" stroke="#010101" stroke-width="0.6" stroke-miterlimit="10"/>
<path d="M1.8024 58.8387L8.60119 63.3469C9.43438 63.9146 10.5675 63.6808 11.1007 62.846L21.6656 46.8838C22.2321 46.0489 21.9988 44.9135 21.1656 44.3792L14.3668 39.8711C13.5337 39.3034 12.4005 39.5371 11.8673 40.372L1.33582 56.3342C0.735922 57.169 0.969212 58.271 1.8024 58.8387Z" fill="#273DA4" stroke="#010101" stroke-width="0.6" stroke-miterlimit="10"/>
<path d="M135.805 21.658L141.504 25.4315C142.304 25.9658 143.37 25.732 143.903 24.9306L155.468 7.46567C156.001 6.66422 155.768 5.59562 154.968 5.06132L149.269 1.28783C148.469 0.753529 147.403 0.987284 146.869 1.78873L135.305 19.2537C134.805 20.0551 135.005 21.1237 135.805 21.658Z" fill="#273DA4" stroke="#010101" stroke-width="0.6" stroke-miterlimit="10"/>
<path d="M179.266 63.791L177.533 56.6113C177.3 55.6763 176.367 55.1086 175.433 55.3424L156.27 60.0175C155.337 60.2512 154.77 61.1863 155.004 62.1213L156.737 69.3009C156.97 70.236 157.903 70.8037 158.836 70.5699L178 65.8948C178.933 65.661 179.499 64.726 179.266 63.791Z" fill="#D062D1" stroke="#010101" stroke-width="0.6" stroke-miterlimit="10"/>
<path d="M272.948 140.694L271.215 133.514C270.981 132.579 270.048 132.012 269.115 132.245L249.952 136.921C249.018 137.154 248.452 138.089 248.685 139.024L250.418 146.204C250.651 147.139 251.585 147.707 252.518 147.473L271.681 142.798C272.614 142.564 273.181 141.629 272.948 140.694Z" fill="#D062D1" stroke="#010101" stroke-width="0.6" stroke-miterlimit="10"/>
<path d="M161.129 106.466L156.563 108.169C155.93 108.403 155.597 109.104 155.83 109.738L160.896 123.33C161.129 123.964 161.829 124.298 162.462 124.064L167.028 122.361C167.661 122.127 167.994 121.426 167.761 120.792L162.695 107.2C162.462 106.566 161.762 106.232 161.129 106.466Z" fill="#D062D1" stroke="#010101" stroke-width="0.6" stroke-miterlimit="10"/>
<path d="M60.4853 177.341L56.9193 174.77C56.286 174.336 55.4195 174.47 54.9863 175.104L43.9216 190.565C43.4883 191.2 43.6216 192.068 44.2549 192.502L47.8209 195.074C48.4541 195.508 49.3206 195.374 49.7539 194.74L60.8186 179.278C61.2518 178.644 61.1185 177.809 60.4853 177.341Z" fill="#D062D1" stroke="#010101" stroke-width="0.6" stroke-miterlimit="10"/>
<path d="M229.19 102.984L233.923 104.787C234.589 105.021 235.289 104.687 235.556 104.052L240.821 90.0604C241.055 89.3925 240.721 88.6913 240.088 88.4241L235.356 86.6209C234.689 86.3871 233.989 86.721 233.723 87.3555L228.457 101.347C228.224 102.015 228.524 102.75 229.19 102.984Z" fill="#D062D1" stroke="#010101" stroke-width="0.6" stroke-miterlimit="10"/>
<path d="M63.4825 44.9418L70.2147 43.0718C71.2478 42.7712 71.881 41.7026 71.5811 40.634L64.8489 16.3234C64.549 15.2882 63.4825 14.6537 62.416 14.9542L55.6839 16.8243C54.6508 17.1248 54.0175 18.1934 54.3175 19.262L61.0496 43.5727C61.3496 44.6079 62.4494 45.2424 63.4825 44.9418Z" fill="#D062D1" stroke="#010101" stroke-width="0.6" stroke-miterlimit="10"/>
<path d="M96.718 72.5013L99.4175 66.5572C99.7508 65.7891 99.4175 64.9209 98.6843 64.5536L84.0203 57.8414C83.2537 57.5075 82.3872 57.8414 82.0206 58.5761L79.3211 64.5202C78.9878 65.2882 79.3211 66.1565 80.0543 66.5238L94.7183 73.2359C95.4849 73.6033 96.3847 73.2693 96.718 72.5013Z" fill="#D062D1" stroke="#010101" stroke-width="0.6" stroke-miterlimit="10"/>
<path d="M148.272 206.733L75.1862 205.274L74.8395 138.852H148.272V206.733Z" fill="#D062D1" stroke="#010101" stroke-width="0.6" stroke-miterlimit="10"/>
<path d="M148.271 138.852L174.066 144.827V200.758L148.271 206.698V138.852Z" fill="#D062D1" stroke="#010101" stroke-width="0.6" stroke-miterlimit="10"/>
<path d="M118.666 206.073L103.411 205.76L103.307 138.852H118.562L118.666 206.073Z" fill="white" stroke="#010101" stroke-width="0.6" stroke-miterlimit="10"/>
<path d="M166.606 202.366L158.875 204.173V141.294L166.606 143.066V202.366Z" fill="white" stroke="#010101" stroke-width="0.6" stroke-miterlimit="10"/>
<path d="M148.583 125.579L70.2612 125.579V138.919H148.583V125.579Z" fill="#D062D1" stroke="#010101" stroke-width="0.6" stroke-miterlimit="10"/>
<path d="M177.322 145.52L148.406 138.676L148.58 125.579L177.703 133.778L177.322 145.52Z" fill="#D062D1" stroke="#010101" stroke-width="0.6" stroke-miterlimit="10"/>
<path d="M120.746 125.038H106.219V138.899H120.746V125.038Z" fill="white" stroke="#010101" stroke-width="0.6" stroke-miterlimit="10"/>
<path d="M169.763 143.709L162.274 141.972L162.552 129.569L169.798 131.689L169.763 143.709Z" fill="white" stroke="#010101" stroke-width="0.6" stroke-miterlimit="10"/>
<path d="M87.5638 94.8203C81.5311 97.5647 79.3121 101.838 81.5657 109.758C83.1606 114.205 93.4231 125.391 105.281 124.662C94.8793 117.019 92.7644 101.734 99.7332 101.004C97.4103 93.1181 87.5638 94.8203 87.5638 94.8203Z" fill="#AAAAAA" stroke="#010101" stroke-width="0.6" stroke-miterlimit="10"/>
<path d="M82.6733 111.886C81.4945 106.328 82.7427 99.241 87.8739 98.7894C93.0052 98.3378 99.8353 100.144 108.122 110.879C113.6 118 114.57 126.894 118.488 124.879C117.448 104.209 113.322 94.3774 102.401 86.8389C98.6565 84.2334 92.5892 83.886 85.967 88.3327C84.1642 89.4791 82.9853 90.5908 81.4945 92.1541C74.179 99.8316 82.6733 111.886 82.6733 111.886Z" fill="white" stroke="#010101" stroke-width="0.6" stroke-miterlimit="10"/>
<path d="M146.921 91.4136C148.03 101.349 138.912 107.776 130.452 115.836C126.015 120.074 123.796 124.243 123.796 124.243C121.923 122.749 122.859 121.359 123.31 119.31C132.29 105.796 133.503 96.0687 130.314 93.7411C131.666 88.2522 144.286 80.6095 146.921 91.4136Z" fill="#AAAAAA" stroke="#010101" stroke-width="0.6" stroke-miterlimit="10"/>
<path d="M118.15 124.284C114.267 101.53 114.822 90.4823 118.531 83.1174C122.519 75.162 126.644 73.2513 134.203 77.0032C146.233 82.9785 147.066 86.9388 146.927 91.4202C144.743 86.3135 139.819 86.6956 136.768 89.0232C133.717 91.3508 127.234 99.0282 125.258 110.249C124.634 114.105 123.42 121.262 123.801 124.284C122.241 124.701 118.323 125.326 118.15 124.284Z" fill="white" stroke="#010101" stroke-width="0.6" stroke-miterlimit="10"/>
<path d="M153.018 107.96C155.098 113.101 154.127 123.002 136.827 124.947C145.217 129.742 168.1 126.337 169.036 119.076C170.388 109.836 165.603 107.647 160.611 106.431C155.584 105.215 153.018 107.96 153.018 107.96Z" fill="#AAAAAA" stroke="#010101" stroke-width="0.6" stroke-miterlimit="10"/>
<path d="M123.906 124.245C132.469 109.377 147.274 93.3616 157.398 93.5005C162.806 93.5005 171.786 113.719 169.012 119.138C168.631 111.6 164.228 109.203 157.883 109.411C151.538 109.655 138.051 121.848 131.395 124.28C125.743 125.6 123.906 124.245 123.906 124.245Z" fill="white" stroke="#010101" stroke-width="0.6" stroke-miterlimit="10"/>
<path d="M116.099 124.915C111.869 122.935 102.369 122.275 98.1048 125.019C93.0775 127.52 78.4118 142.563 74.7714 151.282C81.9135 141.764 97.446 146.905 97.5154 160.037C100.878 146.627 115.301 125.922 116.099 124.915Z" fill="white" stroke="#010101" stroke-width="0.6" stroke-miterlimit="10"/>
<path d="M122.132 124.623C133.921 132.126 140.82 143.104 143.767 153.978C147.407 168.117 141.444 176.628 140.3 180.693C159.369 155.367 160.513 180.693 160.513 180.693C167.031 165.164 165.228 149.253 155.728 138.31C146.229 127.367 139.537 124.136 135.931 122.92C132.291 121.67 124.49 123.198 122.132 124.623Z" fill="white" stroke="#010101" stroke-width="0.6" stroke-miterlimit="10"/>
<path d="M208.204 205.431L169.636 204.661L169.453 169.61H208.204V205.431Z" fill="white" stroke="#010101" stroke-width="0.6" stroke-miterlimit="10"/>
<path d="M208.203 169.61L221.815 172.763V202.278L208.203 205.412V169.61Z" fill="#DEDEDE" stroke="#010101" stroke-width="0.6" stroke-miterlimit="10"/>
<path d="M192.58 205.082L184.53 204.917L184.475 169.61H192.526L192.58 205.082Z" fill="#273DA4" stroke="#010101" stroke-width="0.6" stroke-miterlimit="10"/>
<path d="M217.879 203.126L213.799 204.08V170.898L217.879 171.833V203.126Z" fill="#273DA4" stroke="#010101" stroke-width="0.6" stroke-miterlimit="10"/>
<path d="M208.367 162.606H167.037V169.645H208.367V162.606Z" fill="white" stroke="#010101" stroke-width="0.6" stroke-miterlimit="10"/>
<path d="M223.533 173.128L208.274 169.517L208.366 162.606L223.734 166.932L223.533 173.128Z" fill="#DEDEDE" stroke="#010101" stroke-width="0.6" stroke-miterlimit="10"/>
<path d="M193.678 162.32H186.012V169.635H193.678V162.32Z" fill="#273DA4" stroke="#010101" stroke-width="0.6" stroke-miterlimit="10"/>
<path d="M219.545 172.173L215.593 171.256L215.739 164.711L219.563 165.83L219.545 172.173Z" fill="#273DA4" stroke="#010101" stroke-width="0.6" stroke-miterlimit="10"/>
<path d="M176.168 146.374C172.984 147.823 171.813 150.077 173.003 154.257C173.844 156.604 179.26 162.507 185.517 162.122C180.028 158.089 178.912 150.022 182.59 149.637C181.364 145.476 176.168 146.374 176.168 146.374Z" fill="#152365" stroke="#010101" stroke-width="0.6" stroke-miterlimit="10"/>
<path d="M173.587 155.38C172.965 152.447 173.624 148.707 176.331 148.469C179.039 148.23 182.643 149.184 187.016 154.848C189.907 158.606 190.419 163.299 192.487 162.236C191.938 151.329 189.76 146.141 183.997 142.162C182.021 140.788 178.82 140.604 175.325 142.951C174.374 143.556 173.752 144.142 172.965 144.967C169.105 149.019 173.587 155.38 173.587 155.38Z" fill="#273DA4" stroke="#010101" stroke-width="0.6" stroke-miterlimit="10"/>
<path d="M207.491 144.577C208.076 149.82 203.264 153.211 198.8 157.464C196.458 159.701 195.287 161.9 195.287 161.9C194.299 161.112 194.793 160.379 195.031 159.297C199.77 152.166 200.41 147.033 198.727 145.805C199.44 142.908 206.1 138.875 207.491 144.577Z" fill="#152365" stroke="#010101" stroke-width="0.6" stroke-miterlimit="10"/>
<path d="M192.308 161.922C190.259 149.915 190.552 144.085 192.509 140.199C194.614 136.001 196.791 134.992 200.779 136.972C207.128 140.125 207.567 142.215 207.494 144.58C206.341 141.885 203.743 142.087 202.133 143.315C200.523 144.543 197.102 148.595 196.059 154.516C195.73 156.551 195.089 160.327 195.29 161.922C194.467 162.142 192.4 162.472 192.308 161.922Z" fill="#273DA4" stroke="#010101" stroke-width="0.6" stroke-miterlimit="10"/>
<path d="M210.708 153.308C211.806 156.021 211.293 161.246 202.164 162.272C206.591 164.802 218.667 163.006 219.161 159.174C219.874 154.298 217.349 153.143 214.715 152.501C212.062 151.86 210.708 153.308 210.708 153.308Z" fill="#152365" stroke="#010101" stroke-width="0.6" stroke-miterlimit="10"/>
<path d="M195.345 161.902C199.865 154.056 207.677 145.605 213.019 145.678C215.873 145.678 220.612 156.347 219.148 159.207C218.947 155.229 216.623 153.964 213.275 154.074C209.927 154.202 202.81 160.637 199.297 161.92C196.315 162.617 195.345 161.902 195.345 161.902Z" fill="#273DA4" stroke="#010101" stroke-width="0.6" stroke-miterlimit="10"/>
<path d="M191.226 162.255C188.994 161.21 183.981 160.862 181.73 162.31C179.077 163.63 171.338 171.568 169.417 176.169C173.186 171.146 181.383 173.859 181.419 180.789C183.194 173.713 190.805 162.787 191.226 162.255Z" fill="#273DA4" stroke="#010101" stroke-width="0.6" stroke-miterlimit="10"/>
<path d="M194.41 162.101C200.63 166.061 204.271 171.854 205.826 177.592C207.747 185.053 204.6 189.544 203.997 191.689C214.059 178.325 214.663 191.689 214.663 191.689C218.103 183.495 217.151 175.099 212.138 169.324C207.125 163.549 203.594 161.844 201.691 161.203C199.77 160.543 195.654 161.349 194.41 162.101Z" fill="#273DA4" stroke="#010101" stroke-width="0.6" stroke-miterlimit="10"/>
</svg>
