<svg width="368" height="406" viewBox="0 0 368 406" fill="none" xmlns="http://www.w3.org/2000/svg">
<ellipse cx="336.216" cy="391.471" rx="185.013" ry="14.5291" fill="#BDBDBD"/>
<path d="M132.121 201.517L141.551 198.965C142.952 198.583 143.781 197.179 143.398 195.776L134.924 164.58C134.542 163.177 133.14 162.347 131.739 162.73L122.309 165.282C120.907 165.665 120.079 167.068 120.461 168.472L128.935 199.667C129.317 201.071 130.719 201.836 132.121 201.517Z" fill="#273DA4" stroke="#010101" stroke-width="2" stroke-miterlimit="10"/>
<path d="M77.9914 314.827L90.6068 315.657C92.6457 315.784 94.366 314.253 94.5571 312.212L97.7428 262.962C97.8703 260.921 96.3411 259.198 94.3023 259.007L81.6868 258.178C79.648 258.05 77.9277 259.581 77.7366 261.623L74.5509 310.872C74.4234 312.977 75.9526 314.7 77.9914 314.827Z" fill="#273DA4" stroke="#010101" stroke-width="2" stroke-miterlimit="10"/>
<path d="M385.856 351.719L392.801 342.469C393.884 341.066 393.566 339.024 392.164 337.94L358.969 312.996C357.567 311.911 355.528 312.23 354.445 313.634L347.5 322.884C346.417 324.288 346.736 326.329 348.137 327.414L381.332 352.357C382.798 353.442 384.773 353.123 385.856 351.719Z" fill="#273DA4" stroke="#010101" stroke-width="2" stroke-miterlimit="10"/>
<path d="M47.5339 111.494L60.5316 120.106C62.1244 121.191 64.2907 120.744 65.3101 119.149L85.5076 88.6553C86.5907 87.0605 86.1447 84.8914 84.5518 83.8707L71.5541 75.2585C69.9613 74.1739 67.795 74.6205 66.7756 76.2154L46.6419 106.709C45.495 108.304 45.941 110.409 47.5339 111.494Z" fill="#273DA4" stroke="#010101" stroke-width="2" stroke-miterlimit="10"/>
<path d="M303.715 40.4646L314.61 47.6734C316.139 48.6941 318.178 48.2475 319.197 46.7165L341.306 13.3519C342.326 11.8208 341.88 9.77937 340.35 8.75866L329.455 1.54986C327.926 0.529148 325.887 0.975708 324.868 2.50678L302.759 35.8714C301.803 37.4025 302.186 39.4439 303.715 40.4646Z" fill="#273DA4" stroke="#010101" stroke-width="2" stroke-miterlimit="10"/>
<path d="M386.803 120.954L383.49 107.238C383.044 105.452 381.26 104.368 379.476 104.814L342.84 113.746C341.056 114.192 339.973 115.978 340.419 117.765L343.732 131.48C344.178 133.267 345.962 134.351 347.746 133.905L384.382 124.973C386.166 124.527 387.249 122.741 386.803 120.954Z" fill="#D062D1" stroke="#010101" stroke-width="2" stroke-miterlimit="10"/>
<path d="M352.129 202.479L343.4 205.733C342.189 206.179 341.552 207.519 341.998 208.731L351.683 234.696C352.129 235.908 353.467 236.546 354.677 236.099L363.406 232.846C364.617 232.399 365.254 231.059 364.808 229.847L355.123 203.883C354.677 202.671 353.339 202.033 352.129 202.479Z" fill="#D062D1" stroke="#010101" stroke-width="2" stroke-miterlimit="10"/>
<path d="M159.722 337.879L152.905 332.967C151.694 332.137 150.037 332.393 149.209 333.605L128.056 363.142C127.228 364.354 127.483 366.012 128.693 366.842L135.511 371.754C136.721 372.583 138.378 372.328 139.206 371.116L160.359 341.579C161.187 340.367 160.933 338.772 159.722 337.879Z" fill="#D062D1" stroke="#010101" stroke-width="2" stroke-miterlimit="10"/>
<path d="M165.452 84.9455L178.322 81.373C180.297 80.7988 181.508 78.7574 180.934 76.7159L168.064 30.2734C167.491 28.2958 165.452 27.0837 163.413 27.6579L150.543 31.2304C148.568 31.8045 147.357 33.8459 147.931 35.8874L160.801 82.3299C161.374 84.3075 163.477 85.5196 165.452 84.9455Z" fill="#D062D1" stroke="#010101" stroke-width="2" stroke-miterlimit="10"/>
<path d="M228.99 137.594L234.151 126.239C234.788 124.772 234.151 123.113 232.749 122.411L204.715 109.588C203.25 108.95 201.593 109.588 200.892 110.992L195.732 122.347C195.094 123.815 195.732 125.473 197.133 126.175L225.167 138.998C226.633 139.7 228.353 139.062 228.99 137.594Z" fill="#D062D1" stroke="#010101" stroke-width="2" stroke-miterlimit="10"/>
<path d="M327.55 394.028L187.826 391.241L187.164 264.349H327.55V394.028Z" fill="#D062D1" stroke="#010101" stroke-miterlimit="10"/>
<path d="M327.547 264.349L376.861 275.764V382.613L327.547 393.962V264.349Z" fill="#D062D1" stroke="#010101" stroke-miterlimit="10"/>
<path d="M270.95 392.767L241.786 392.17L241.587 264.349H270.751L270.95 392.767Z" fill="white" stroke="#010101" stroke-miterlimit="10"/>
<path d="M362.6 385.686L347.819 389.137V269.014L362.6 272.399V385.686Z" fill="white" stroke="#010101" stroke-miterlimit="10"/>
<path d="M328.143 238.993L178.411 238.993V264.478H328.143V238.993Z" fill="#D062D1" stroke="#010101" stroke-miterlimit="10"/>
<path d="M383.085 277.087L327.806 264.013L328.137 238.993L383.814 254.656L383.085 277.087Z" fill="#D062D1" stroke="#010101" stroke-miterlimit="10"/>
<path d="M274.926 237.959H247.153V264.439H274.926V237.959Z" fill="white" stroke="#010101" stroke-miterlimit="10"/>
<path d="M368.635 273.627L354.318 270.309L354.849 246.616L368.702 250.665L368.635 273.627Z" fill="white" stroke="#010101" stroke-miterlimit="10"/>
<path d="M211.49 180.232C199.957 185.475 195.714 193.638 200.023 208.77C203.072 217.264 222.691 238.634 245.36 237.241C225.475 222.64 221.432 193.439 234.755 192.045C230.314 176.98 211.49 180.232 211.49 180.232Z" fill="#AAAAAA" stroke="#010101" stroke-miterlimit="10"/>
<path d="M202.14 212.835C199.886 202.216 202.273 188.677 212.082 187.815C221.892 186.952 234.95 190.403 250.791 210.91C261.264 224.515 263.12 241.505 270.61 237.655C268.621 198.168 260.734 179.386 239.855 164.985C232.696 160.007 221.097 159.344 208.437 167.838C204.99 170.028 202.737 172.152 199.886 175.139C185.901 189.806 202.14 212.835 202.14 212.835Z" fill="white" stroke="#010101" stroke-miterlimit="10"/>
<path d="M324.967 173.724C327.088 192.705 309.656 204.982 293.483 220.379C284.998 228.476 280.756 236.44 280.756 236.44C277.177 233.586 278.967 230.932 279.828 227.016C296.996 201.2 299.315 182.617 293.217 178.171C295.802 167.685 319.929 153.084 324.967 173.724Z" fill="#AAAAAA" stroke="#010101" stroke-miterlimit="10"/>
<path d="M269.964 236.519C262.54 193.049 263.6 171.945 270.693 157.875C278.315 142.677 286.203 139.027 300.652 146.195C323.652 157.61 325.243 165.176 324.978 173.737C320.802 163.981 311.39 164.711 305.557 169.158C299.724 173.604 287.329 188.271 283.551 209.707C282.358 217.074 280.038 230.745 280.768 236.519C277.785 237.315 270.295 238.51 269.964 236.519Z" fill="white" stroke="#010101" stroke-miterlimit="10"/>
<path d="M336.623 205.333C340.599 215.156 338.744 234.07 305.669 237.786C321.709 246.945 365.455 240.441 367.245 226.57C369.83 208.917 360.683 204.736 351.138 202.413C341.527 200.09 336.623 205.333 336.623 205.333Z" fill="#AAAAAA" stroke="#010101" stroke-miterlimit="10"/>
<path d="M280.967 236.445C297.339 208.04 325.641 177.445 344.996 177.711C355.336 177.711 372.503 216.336 367.2 226.689C366.471 212.288 358.053 207.708 345.924 208.107C333.794 208.571 308.01 231.866 295.284 236.511C284.48 239.033 280.967 236.445 280.967 236.445Z" fill="white" stroke="#010101" stroke-miterlimit="10"/>
<path d="M266.042 237.724C257.956 233.941 239.794 232.68 231.642 237.923C222.031 242.702 193.993 271.438 187.034 288.096C200.688 269.912 230.382 279.734 230.515 304.82C236.944 279.203 264.518 239.649 266.042 237.724Z" fill="white" stroke="#010101" stroke-miterlimit="10"/>
<path d="M277.577 237.166C300.113 251.501 313.303 272.473 318.937 293.245C325.897 320.256 314.496 336.516 312.309 344.281C348.764 295.9 350.951 344.281 350.951 344.281C363.412 314.615 359.966 284.219 341.804 263.314C323.643 242.409 310.85 236.237 303.957 233.914C296.997 231.525 282.084 234.445 277.577 237.166Z" fill="white" stroke="#010101" stroke-miterlimit="10"/>
<path d="M442.125 391.54L368.393 390.069L368.043 323.108H442.125V391.54Z" fill="white" stroke="#010101" stroke-miterlimit="10"/>
<path d="M442.438 309.728H363.424V323.176H442.438V309.728Z" fill="white" stroke="#010101" stroke-miterlimit="10"/>
<path d="M375.946 295.924C374.757 290.321 376.016 283.176 381.193 282.721C386.369 282.266 393.26 284.087 401.619 294.908C407.146 302.088 408.125 311.053 412.077 309.022C411.028 288.184 406.866 278.273 395.848 270.674C392.07 268.047 385.949 267.697 379.269 272.179C377.45 273.335 376.261 274.456 374.757 276.032C367.377 283.772 375.946 295.924 375.946 295.924Z" fill="#273DA4" stroke="#010101" stroke-miterlimit="10"/>
<path d="M409.667 309.058C405.4 307.062 395.816 306.397 391.514 309.163C386.442 311.685 371.647 326.849 367.974 335.64C375.18 326.044 390.849 331.227 390.919 344.465C394.312 330.947 408.863 310.074 409.667 309.058Z" fill="#273DA4" stroke="#010101" stroke-miterlimit="10"/>
</svg>
