<svg width="12" height="12" viewBox="0 0 12 12" fill="none" xmlns="http://www.w3.org/2000/svg">
    <g id="whatssapp-big-logo 1" clip-path="url(#clip0_206_1017)">
        <path id="Vector"
            d="M6.04382 0C2.81287 0 0.18432 2.62855 0.18432 5.85946C0.18432 6.96308 0.490462 8.03108 1.07158 8.96058L0.120148 11.5031C0.0696273 11.6381 0.102596 11.7903 0.204558 11.8922C0.274838 11.9625 0.368889 12 0.464816 12C0.508088 12 0.551728 11.9924 0.593712 11.9766L3.21954 10.994C4.08141 11.4688 5.05397 11.7189 6.04378 11.7189C9.27472 11.7189 11.9032 9.09036 11.9032 5.85946C11.9033 2.62855 9.27476 0 6.04382 0ZM8.86728 7.69948C8.70365 8.28133 8.09199 8.70356 7.41292 8.70353C7.3465 8.70353 7.27942 8.6994 7.21455 8.69135C6.38918 8.57268 5.42321 8.00639 4.62875 7.17458C3.79212 6.37556 3.22584 5.40974 3.11387 4.59099C3.00053 3.76235 3.37133 3.1444 4.10563 2.9379C4.14334 2.9273 4.18323 2.92193 4.22418 2.92193C4.65433 2.92193 5.16671 3.5298 5.34469 3.96557C5.4606 4.24938 5.45181 4.46802 5.3193 4.59795C4.98681 4.92381 4.86289 5.12192 4.8772 5.30461C4.89324 5.5082 5.08274 5.74344 5.40467 6.08093C5.44573 6.12406 5.50071 6.18146 5.56245 6.24346C5.62011 6.3009 5.67538 6.35385 5.72424 6.40058C6.08363 6.7433 6.31831 6.92904 6.52915 6.92904C6.70449 6.92901 6.89457 6.80475 7.20712 6.48584C7.25447 6.43756 7.34179 6.38005 7.4889 6.38005C7.8768 6.38005 8.42422 6.7586 8.69213 7.11218C8.85451 7.3264 8.91504 7.52951 8.86728 7.69948Z"
            fill="white" />
    </g>
    <defs>
        <clipPath id="clip0_206_1017">
            <rect width="12" height="12" fill="white" />
        </clipPath>
    </defs>
</svg>