<svg width="12" height="13" viewBox="0 0 12 13" fill="none" xmlns="http://www.w3.org/2000/svg">
<g id="Youtube">
<path id="Subtract" fill-rule="evenodd" clip-rule="evenodd" d="M10.6883 2.73945C11.2046 2.8713 11.6112 3.25977 11.7492 3.75297C12 4.64698 12 6.51225 12 6.51225C12 6.51225 12 8.37756 11.7492 9.27152C11.6112 9.76475 11.2046 10.137 10.6883 10.2689C9.75249 10.5084 6 10.5084 6 10.5084C6 10.5084 2.24751 10.5084 1.31166 10.2689C0.795368 10.137 0.388749 9.76477 0.250749 9.27154C0 8.37759 0 6.51227 0 6.51227C0 6.51227 0 4.64698 0.250749 3.753C0.388749 3.25977 0.795368 2.87132 1.31166 2.73947C2.24751 2.49994 6 2.49994 6 2.49994C6 2.49994 9.75249 2.49994 10.6883 2.73945ZM4.77288 4.81872V8.20579L7.90922 6.51229L4.77288 4.81872Z" fill="white"/>
</g>
</svg>
